<mxfile host="app.diagrams.net" modified="2021-11-26T08:25:20.238Z" agent="5.0 (Windows NT 10.0; Win64; x64) AppleWebKit/537.36 (KHTML, like Gecko) Chrome/96.0.4664.55 Safari/537.36 Edg/96.0.1054.34" etag="838CkatSiRPdDawOYEra" version="15.8.6" type="github">
  <diagram id="TSoKjJhobDwRx0PiR_Tu" name="Page-1">
    <mxGraphModel dx="1422" dy="794" grid="1" gridSize="10" guides="1" tooltips="1" connect="1" arrows="1" fold="1" page="1" pageScale="1" pageWidth="827" pageHeight="1169" math="0" shadow="0">
      <root>
        <mxCell id="0" />
        <mxCell id="1" parent="0" />
        <mxCell id="RJcJxQQwCYGekRO_4jkO-3" style="edgeStyle=orthogonalEdgeStyle;rounded=0;orthogonalLoop=1;jettySize=auto;html=1;exitX=0.5;exitY=1;exitDx=0;exitDy=0;entryX=0.5;entryY=0;entryDx=0;entryDy=0;" edge="1" parent="1" source="o5GaCxOlPyTXBt7g0buD-1" target="RJcJxQQwCYGekRO_4jkO-2">
          <mxGeometry relative="1" as="geometry" />
        </mxCell>
        <mxCell id="o5GaCxOlPyTXBt7g0buD-1" value="" style="rounded=0;whiteSpace=wrap;html=1;strokeWidth=2;" parent="1" vertex="1">
          <mxGeometry x="300" y="40" width="120" height="60" as="geometry" />
        </mxCell>
        <mxCell id="o5GaCxOlPyTXBt7g0buD-2" value="" style="shape=trapezoid;perimeter=trapezoidPerimeter;whiteSpace=wrap;html=1;fixedSize=1;" parent="1" vertex="1">
          <mxGeometry x="470" y="260" width="120" height="60" as="geometry" />
        </mxCell>
        <mxCell id="o5GaCxOlPyTXBt7g0buD-3" value="Actor" style="shape=umlActor;verticalLabelPosition=bottom;verticalAlign=top;html=1;outlineConnect=0;" parent="1" vertex="1">
          <mxGeometry x="290" y="260" width="30" height="60" as="geometry" />
        </mxCell>
        <mxCell id="RJcJxQQwCYGekRO_4jkO-1" value="" style="ellipse;shape=cloud;whiteSpace=wrap;html=1;" vertex="1" parent="1">
          <mxGeometry x="80" y="380" width="120" height="80" as="geometry" />
        </mxCell>
        <mxCell id="RJcJxQQwCYGekRO_4jkO-2" value="" style="rounded=1;whiteSpace=wrap;html=1;strokeWidth=2;" vertex="1" parent="1">
          <mxGeometry x="300" y="160" width="120" height="60" as="geometry" />
        </mxCell>
      </root>
    </mxGraphModel>
  </diagram>
</mxfile>
